<svg width="80" height="64" viewBox="0 0 80 64" fill="none" xmlns="http://www.w3.org/2000/svg">
  <defs>
    <linearGradient id="lotusMain" x1="40" y1="60" x2="40" y2="4" gradientUnits="userSpaceOnUse">
      <stop stop-color="#d2f6e5"/>
      <stop offset="1" stop-color="#3cb371"/>
    </linearGradient>
    <linearGradient id="lotusSide" x1="20" y1="40" x2="60" y2="40" gradientUnits="userSpaceOnUse">
      <stop stop-color="#fff"/>
      <stop offset="1" stop-color="#7be0ad"/>
    </linearGradient>
  </defs>
  <!-- Center petal -->
  <path d="M40 60C40 60 44 48 54 44C70 36 76 20 76 20C76 20 66 22 57 30C50 36 46 44 46 44C46 44 44 36 49 29C57 19 73 12 73 12C73 12 60 12 51 22C41 32 40 60 40 60Z"
    fill="url(#lotusMain)" stroke="#247a49" stroke-width="2"/>
  <!-- Left petal -->
  <path d="M40 60C40 60 36 48 26 44C10 36 4 20 4 20C4 20 14 22 23 30C30 36 34 44 34 44C34 44 36 36 31 29C23 19 7 12 7 12C7 12 20 12 29 22C39 32 40 60 40 60Z"
    fill="url(#lotusSide)" stroke="#247a49" stroke-width="2"/>
  <!-- Center ellipse -->
  <ellipse cx="40" cy="34" rx="7" ry="15" fill="#fff" stroke="#247a49" stroke-width="2"/>
</svg>