<svg width="80" height="80" viewBox="0 0 80 80" fill="none"
  xmlns="http://www.w3.org/2000/svg">
  <defs>
    <radialGradient id="mandalaGrad" cx="40" cy="40" r="36" gradientUnits="userSpaceOnUse">
      <stop stop-color="#fff" />
      <stop offset="1" stop-color="#d2f6e5" />
    </radialGradient>
    <linearGradient id="mandalaLineGrad" x1="0" y1="0" x2="80" y2="80" gradientUnits="userSpaceOnUse">
      <stop stop-color="#3cb371"/>
      <stop offset="1" stop-color="#247a49"/>
    </linearGradient>
  </defs>
  <circle cx="40" cy="40" r="36" fill="url(#mandalaGrad)" stroke="#3cb371" stroke-width="3"/>
  <circle cx="40" cy="40" r="26" stroke="#7be0ad" stroke-width="1.7" fill="none"/>
  <circle cx="40" cy="40" r="14" stroke="#247a49" stroke-width="1.7" fill="#fff"/>
  <g stroke="url(#mandalaLineGrad)" stroke-width="2" stroke-linecap="round">
    <path d="M40 7V19"/>
    <path d="M40 61V73"/>
    <path d="M7 40H19"/>
    <path d="M61 40H73"/>
    <path d="M17.2 17.2L26.5 26.5"/>
    <path d="M62.8 62.8L53.5 53.5"/>
    <path d="M17.2 62.8L26.5 53.5"/>
    <path d="M62.8 17.2L53.5 26.5"/>
  </g>
  <circle cx="40" cy="40" r="6" fill="#3cb371" stroke="#247a49" stroke-width="1.2"/>
  <g>
    <circle cx="40" cy="13" r="1.6" fill="#3cb371"/>
    <circle cx="40" cy="67" r="1.6" fill="#7be0ad"/>
    <circle cx="13" cy="40" r="1.6" fill="#3cb371"/>
    <circle cx="67" cy="40" r="1.6" fill="#7be0ad"/>
    <circle cx="25" cy="25" r="1.3" fill="#247a49"/>
    <circle cx="55" cy="25" r="1.3" fill="#247a49"/>
    <circle cx="25" cy="55" r="1.3" fill="#247a49"/>
    <circle cx="55" cy="55" r="1.3" fill="#247a49"/>
  </g>
</svg>